<svg xmlns="http://www.w3.org/2000/svg" viewBox="0 0 24 24" fill="currentColor">
  <path d="M12.5,3.33333c-1.64444,0 -3.11222,0.92778 -3.84,2.30778l-4.32889,4.32889c-0.54222,0.54222 -0.54222,1.42222 0,1.96444l1.96444,1.96444l-0.98222,0.98222c-0.54222,0.54222 -0.54222,1.42222 0,1.96444l5.89333,5.89333c0.54222,0.54222 1.42222,0.54222 1.96444,0l0.98222,-0.98222l1.96444,1.96444c0.54222,0.54222 1.42222,0.54222 1.96444,0l4.32889,-4.32889c1.38,-0.72778 2.30778,-2.19556 2.30778,-3.84c0,-1.62 -0.90333,-3.09778 -2.30778,-3.84l-2.12889,-2.12889c-0.68444,-1.41556 -2.16,-2.30778 -3.84,-2.30778c-0.74778,0 -1.46556,0.19556 -2.08,0.54222l-1.06667,-1.06667c-0.27111,-0.27111 -0.58667,-0.42 -0.91,-0.42z" />
</svg>
