<svg xmlns="http://www.w3.org/2000/svg" viewBox="0 0 24 24" fill="currentColor">
  <path d="M8.4,11.6c-0.906,0.906 -2.262,1.176 -3.456,0.714c-1.758,-0.684 -2.394,-2.724 -1.374,-4.26c0.504,-0.756 1.26,-1.254 2.124,-1.254c0.192,0 0.384,0.024 0.582,0.072c1.14,0.336 1.974,1.368 1.974,2.628c0,0.588 -0.192,1.14 -0.522,1.596c0.24,0.174 0.462,0.36 0.672,0.504zM17.94,11.376c-0.714,0.276 -1.5,0.174 -2.142,-0.282l-2.742,-2.058c0.714,-0.714 1.188,-1.662 1.302,-2.724c0.138,-1.284 -0.306,-2.55 -1.218,-3.462c-0.924,-0.924 -2.19,-1.368 -3.462,-1.218c-2.538,0.276 -4.392,2.604 -4.116,5.142c0.114,1.098 0.588,2.058 1.308,2.772l-3.234,2.406c-1.74,1.308 -1.908,3.942 -0.366,5.484c1.134,1.134 2.85,1.386 4.242,0.636l0.336,-0.174c-0.306,0.726 -0.228,1.572 0.246,2.214c0.624,0.852 1.776,1.11 2.706,0.606l3.648,-1.98c1.734,-0.936 3.156,-2.364 4.098,-4.092l1.662,-3.03c0.768,-1.398 -0.132,-3.132 -1.668,-3.336z" />
</svg>
